<?xml version="1.0" encoding="utf-8"?>
<!-- Generator: Adobe Illustrator 16.0.0, SVG Export Plug-In . SVG Version: 6.00 Build 0)  -->
<!DOCTYPE svg PUBLIC "-//W3C//DTD SVG 1.1//EN" "http://www.w3.org/Graphics/SVG/1.1/DTD/svg11.dtd">
<svg version="1.1" id="Camada_1" xmlns="http://www.w3.org/2000/svg" xmlns:xlink="http://www.w3.org/1999/xlink" x="0px" y="0px"
	 width="32px" height="32px" viewBox="0 0 32 32" enable-background="new 0 0 32 32" xml:space="preserve">
<g id="icomoon-ignore">
</g>
<path fill="#2C5CF4" d="M26.667,0H5.334C2.401,0,0,2.4,0,5.334v21.332C0,29.602,2.4,32,5.334,32h21.333
	C29.602,32,32,29.602,32,26.666V5.334C32,2.4,29.602,0,26.667,0z M27.206,16H22v14h-6V16h-2.891v-4.58H16V8.445
	C16,4.403,17.744,2,22.496,2h5.477v4.955h-4.474c-1.328-0.002-1.492,0.692-1.492,1.985L22,11.42h6L27.206,16z"/>
</svg>
