<?xml version="1.0" encoding="utf-8"?>
<!-- Generator: Adobe Illustrator 16.0.0, SVG Export Plug-In . SVG Version: 6.00 Build 0)  -->
<!DOCTYPE svg PUBLIC "-//W3C//DTD SVG 1.1//EN" "http://www.w3.org/Graphics/SVG/1.1/DTD/svg11.dtd">
<svg version="1.1" id="Camada_1" xmlns="http://www.w3.org/2000/svg" xmlns:xlink="http://www.w3.org/1999/xlink" x="0px" y="0px"
	 width="32px" height="32px" viewBox="0 0 32 32" enable-background="new 0 0 32 32" xml:space="preserve">
<g id="icomoon-ignore">
</g>
<path fill="#78DCFF" d="M26.667,0H5.334C2.4,0,0,2.4,0,5.334v21.332C0,29.602,2.4,32,5.334,32h21.333C29.602,32,32,29.602,32,26.666
	V5.334C32,2.4,29.602,0,26.667,0z M26.189,10.682c0.01,0.229,0.015,0.46,0.015,0.692c0,7.069-5.288,15.222-14.958,15.222
	c-2.969,0-5.732-0.887-8.059-2.404c0.411,0.05,0.83,0.074,1.254,0.074c2.463,0,4.73-0.854,6.529-2.289
	c-2.3-0.043-4.242-1.591-4.911-3.716c0.321,0.063,0.65,0.097,0.989,0.097c0.479,0,0.944-0.066,1.385-0.188
	c-2.405-0.492-4.217-2.654-4.217-5.245c0-0.023,0-0.045,0-0.067c0.709,0.401,1.519,0.641,2.381,0.669
	c-1.411-0.959-2.339-2.597-2.339-4.453c0-0.98,0.259-1.899,0.712-2.689c2.593,3.237,6.467,5.366,10.836,5.589
	c-0.09-0.392-0.136-0.8-0.136-1.219c0-2.954,2.354-5.349,5.257-5.349c1.513,0,2.88,0.65,3.839,1.689
	c1.197-0.24,2.322-0.685,3.338-1.298c-0.394,1.249-1.227,2.298-2.312,2.96c1.063-0.129,2.077-0.417,3.019-0.842
	c-0.705,1.073-1.596,2.015-2.623,2.769L26.189,10.682z"/>
</svg>
